<?xml version="1.0" encoding="UTF-8"?><svg id="a" xmlns="http://www.w3.org/2000/svg" xmlns:xlink="http://www.w3.org/1999/xlink" viewBox="0 0 305.68 241.97"><defs><linearGradient id="b" x1="123.36" y1="88.42" x2="181.49" y2="88.42" gradientUnits="userSpaceOnUse"><stop offset="0" stop-color="#009290"/><stop offset="1" stop-color="#00cccc"/></linearGradient></defs><circle cx="152.43" cy="88.42" r="29.06" style="fill:url(#b);"/><path fill="#009290" d="M305.68,88.57c-26.54-35.32-62.76-67.9-105.8-80.97-60.34-18.32-112.23-2.54-159.19,36.98C25.51,57.35,12.41,72.26,0,87.67c-.1,1.21,6.69,9.51,8.06,11.24,14.02,17.68,30.89,35.37,50,47.5,16.44,10.44,39.2,19.49,57.52,26.02l-.09,21.89c-5.2,2.76-8.76,8.33-8.76,14.77,0,9.18,7.23,16.63,16.14,16.63s16.14-7.44,16.14-16.63c0-6.52-3.65-12.15-8.96-14.87v-35.01c-24.62-6.53-49.66-15.93-70.2-31.1-15.54-11.48-27.98-25.12-40.53-39.69,15.37-18.98,34.6-37.4,55.53-50.19,39.95-24.41,94.7-29.68,137.47-9.35,28.64,13.61,54.93,34.86,73.91,60.18-12.78,13.23-24.81,27.4-39.75,38.3-17,12.42-36.78,22.17-56.95,28.17v-19.93c48.39-39.75,11.24-118.7-51.01-104.96-46.69,10.3-61.25,71.26-25.13,102.36,8.95,7.71,21.08,12.97,32.81,14.34l-.02,36.9,15.64,15.19v10.69c-5.64,2.59-9.58,8.41-9.58,15.18,0,9.18,7.23,16.63,16.14,16.63s16.14-7.44,16.14-16.63c0-6.82-3.99-12.68-9.7-15.24v-16.82l-14.39-15-.04-31.32s7.74-.22,15-3.57l.04,26.65,18.18,20.14c-.75,1.92-1.18,4.02-1.18,6.22,0,9.18,7.23,16.63,16.14,16.63s16.14-7.44,16.14-16.63-7.23-16.63-16.14-16.63c-1.72,0-3.89.74-5.44,1.25l-8.6-10.22c44.37-14.2,83.34-45.43,111.14-82.23ZM123.06,203.38c3.14,0,5.69,2.55,5.69,5.69s-2.55,5.69-5.69,5.69-5.69-2.55-5.69-5.69,2.55-5.69,5.69-5.69ZM168.78,219.61c3.14,0,5.69,2.55,5.69,5.69s-2.55,5.69-5.69,5.69-5.69-2.55-5.69-5.69,2.55-5.69,5.69-5.69ZM152.36,131.1c-23.52,0-42.58-19.07-42.58-42.58s19.07-42.58,42.58-42.58,42.58,19.07,42.58,42.58-19.07,42.58-42.58,42.58ZM208.96,190.69c3.14,0,5.69,2.55,5.69,5.69s-2.55,5.69-5.69,5.69-5.69-2.55-5.69-5.69,2.55-5.69,5.69-5.69Z"/></svg>
